<?xml version="1.0" encoding="utf-8"?>
<!-- Generator: Adobe Illustrator 22.1.0, SVG Export Plug-In . SVG Version: 6.00 Build 0)  -->
<svg version="1.0" id="Layer_1" xmlns="http://www.w3.org/2000/svg" xmlns:xlink="http://www.w3.org/1999/xlink" x="0px" y="0px"
	 viewBox="0 0 158 89" style="enable-background:new 0 0 158 89;" xml:space="preserve">
<style type="text/css">
	.st0{fill:#FFFFFF;}
	.st1{fill:#4B515E;}
	.st2{fill:#E9EDF2;}
	.st3{fill:#313F75;}
	.st4{fill:#9CCB35;}
</style>
<g>
	<g>
		<path class="st0" d="M152.9,42.7v7.4c0.2,1.1-0.4,2.4-1.7,2.8L49.2,84.5c-1.5,0.5-3.2,0.3-4.6-0.6L6.4,59.6
			c-0.9-0.6-1.2-1.5-1.1-2.4v-7.1L152.9,42.7z"/>
	</g>
	<g>
		<path class="st0" d="M5.3,50.2L7,47.7c0,0,1.7-0.5,3.7-1.1c1.9-0.6,98.7-30.2,98.7-30.2l2-0.2l4.3,1.9l37,23.5l0.5,2l-1.7,1.9
			L49.2,76.9l-3.1,0.2l-7.5-4.7l-17.3-11L5.8,51.4L5.3,50.2z"/>
	</g>
	<g>
		<g>
			<path class="st1" d="M47.6,77.7c-1.2,0-2.3-0.3-3.3-1L6.1,52.4c-1-0.6-1.6-1.8-1.4-3c0.2-1.2,1-2.2,2.1-2.5l102.4-31.3
				c1.7-0.5,3.6-0.3,5.1,0.7l38.1,24c1,0.6,1.6,1.8,1.4,3c-0.2,1.2-1,2.2-2.1,2.5L49.4,77.5C48.8,77.6,48.2,77.7,47.6,77.7z
				 M111,16.6c-0.5,0-1,0.1-1.4,0.2L7.2,48.2c-0.7,0.2-1.1,0.8-1.2,1.5c-0.1,0.7,0.2,1.4,0.8,1.7L45,75.7c1.2,0.8,2.7,1,4.1,0.5l0,0
				l102.2-31.7c0.7-0.2,1.1-0.8,1.2-1.5c0.1-0.7-0.2-1.4-0.8-1.7l-38.1-24C112.8,16.9,111.9,16.6,111,16.6z"/>
		</g>
	</g>
	<polygon class="st2" points="10.4,46.6 54.6,75.7 147.6,47.1 102.7,17.8 	"/>
	<g>
		<g>
			<path class="st3" d="M47.6,85.5c-1.2,0-2.3-0.3-3.3-1L6.1,60.2c-1-0.6-1.5-1.8-1.4-3v-7.1H6v7.1c0,0,0,0.1,0,0.1
				c-0.1,0.7,0.2,1.4,0.8,1.7L45,83.5c1.2,0.8,2.7,1,4.1,0.5l102.2-31.7c1-0.3,1.4-1.3,1.2-2c0,0,0-0.1,0-0.1v-7.4h1.3v7.3
				c0.3,1.5-0.6,3-2.1,3.5L49.4,85.2C48.8,85.4,48.2,85.5,47.6,85.5z"/>
		</g>
		<g>
			<path class="st3" d="M47.6,77.8c-1.2,0-2.3-0.3-3.3-1L6.1,52.6c-1-0.6-1.6-1.8-1.4-3c0.2-1.2,1-2.2,2.1-2.5l102.4-31.3
				c1.7-0.5,3.6-0.3,5.1,0.7l38.1,24c1,0.6,1.6,1.8,1.4,3c-0.2,1.2-1,2.2-2.1,2.5L49.4,77.6v0C48.8,77.7,48.2,77.8,47.6,77.8z
				 M111,16.7c-0.5,0-1,0.1-1.4,0.2L7.2,48.3C6.5,48.5,6.1,49,6,49.7c-0.1,0.7,0.2,1.4,0.8,1.7L45,75.8c1.2,0.8,2.7,1,4.1,0.5
				l102.2-31.7c0.7-0.2,1.1-0.8,1.2-1.5c0.1-0.7-0.2-1.4-0.8-1.7l-38.1-24C112.8,17,111.9,16.7,111,16.7z"/>
		</g>
		<g>
			<path class="st3" d="M138.8,54.2c-0.3,0-0.5-0.2-0.6-0.5c-0.1-0.3,0.1-0.7,0.4-0.8l4.1-1.3c0.3-0.1,0.7,0.1,0.8,0.4
				c0.1,0.3-0.1,0.7-0.4,0.8l-4.1,1.3C138.9,54.1,138.8,54.2,138.8,54.2z"/>
		</g>
		<g>
			<path class="st3" d="M129.2,57.1c-0.3,0-0.5-0.2-0.6-0.5c-0.1-0.3,0.1-0.7,0.4-0.8l5.7-1.8c0.3-0.1,0.7,0.1,0.8,0.4
				c0.1,0.3-0.1,0.7-0.4,0.8l-5.7,1.8C129.3,57.1,129.2,57.1,129.2,57.1z"/>
		</g>
		<g>
			
				<rect x="32" y="34.5" transform="matrix(0.5394 -0.8421 0.8421 0.5394 -36.2266 55.5763)" class="st3" width="1.3" height="52.9"/>
		</g>
		<g>
			
				<rect x="125" y="5.8" transform="matrix(0.5394 -0.8421 0.8421 0.5394 30.7298 120.7001)" class="st3" width="1.3" height="52.9"/>
		</g>
		<g>
			<path class="st3" d="M132.5,33.3c-0.1,0-0.2,0-0.3-0.1l-5.2-3.3c-0.3-0.2-0.4-0.6-0.2-0.9c0.2-0.3,0.6-0.4,0.9-0.2l5.2,3.3
				c0.3,0.2,0.4,0.6,0.2,0.9C132.9,33.2,132.7,33.3,132.5,33.3z"/>
		</g>
		<g>
			<path class="st3" d="M27.1,69.8c-0.1,0-0.2,0-0.3-0.1l-5.2-3.3c-0.3-0.2-0.4-0.6-0.2-0.9c0.2-0.3,0.6-0.4,0.9-0.2l5.2,3.3
				c0.3,0.2,0.4,0.6,0.2,0.9C27.5,69.7,27.3,69.8,27.1,69.8z"/>
		</g>
		<g>
			<path class="st3" d="M125.3,28.7c-0.1,0-0.2,0-0.3-0.1l-0.4-0.2c-0.3-0.2-0.4-0.6-0.2-0.9c0.2-0.3,0.6-0.4,0.9-0.2l0.4,0.2
				c0.3,0.2,0.4,0.6,0.2,0.9C125.7,28.6,125.5,28.7,125.3,28.7z"/>
		</g>
	</g>
	<g>
		<g>
			<path class="st0" d="M59.4,50.2V17c0-7.1,5.8-12.9,12.9-12.9h41v25.5c0,7.1-5.8,12.9-12.9,12.9H70.1L59.4,50.2z"/>
		</g>
		<path class="st4" d="M81.5,18.3c0-1.5-1.3-2.8-2.8-2.8c-1.5,0-2.8,1.3-2.8,2.8c0,1.5,1.3,2.8,2.8,2.8
			C80.2,21.1,81.5,19.8,81.5,18.3z"/>
		<path class="st4" d="M92.9,18.3c0-1.5,1.3-2.8,2.8-2.8c1.5,0,2.8,1.3,2.8,2.8c0,1.5-1.3,2.8-2.8,2.8
			C94.2,21.1,92.9,19.8,92.9,18.3z"/>
		<g>
			<path class="st4" d="M87.2,34.5c-4.1,0-8.2-1.6-11.3-4.7l2.1-2.1c5.1,5.1,13.3,5.1,18.3,0l2.1,2.1C95.3,33,91.3,34.5,87.2,34.5z"
				/>
		</g>
		<g>
			<g>
				<path class="st4" d="M59.4,50.2V17c0-7.1,5.8-12.9,12.9-12.9h41v25.5c0,7.1-5.8,12.9-12.9,12.9H70.1L59.4,50.2z M72.3,6.9
					c-5.6,0-10.2,4.6-10.2,10.2v27.8l7.2-5.1h31.1c5.6,0,10.2-4.6,10.2-10.2V6.9H72.3z"/>
			</g>
		</g>
	</g>
</g>
</svg>
