<?xml version="1.0" encoding="utf-8"?>
<!-- Generator: Adobe Illustrator 22.1.0, SVG Export Plug-In . SVG Version: 6.00 Build 0)  -->
<svg version="1.0" id="Layer_1" xmlns="http://www.w3.org/2000/svg" xmlns:xlink="http://www.w3.org/1999/xlink" x="0px" y="0px"
	 viewBox="0 0 182.1 76.1" style="enable-background:new 0 0 182.1 76.1;" xml:space="preserve">
<style type="text/css">
	.st0{fill:#FFFFFF;}
</style>
<g>
	<path class="st0" d="M138.6,29.9c0-1.5-1.3-2.8-2.8-2.8c-1.5,0-2.8,1.3-2.8,2.8c0,1.5,1.3,2.8,2.8,2.8
		C137.4,32.7,138.6,31.4,138.6,29.9z"/>
	<path class="st0" d="M150.1,29.9c0-1.5,1.3-2.8,2.8-2.8c1.5,0,2.8,1.3,2.8,2.8c0,1.5-1.3,2.8-2.8,2.8
		C151.3,32.7,150.1,31.4,150.1,29.9z"/>
	<g>
		<path class="st0" d="M144.4,46.1c-4.1,0-8.2-1.6-11.3-4.7l2.1-2.1c5.1,5.1,13.3,5.1,18.3,0l2.1,2.1
			C152.5,44.6,148.4,46.1,144.4,46.1z"/>
	</g>
	<g>
		<g>
			<path class="st0" d="M116.5,61.8V28.6c0-7.1,5.8-12.9,12.9-12.9h41v25.5c0,7.1-5.8,12.9-12.9,12.9h-30.2L116.5,61.8z M129.4,18.5
				c-5.6,0-10.2,4.6-10.2,10.2v27.8l7.2-5.1h31.1c5.6,0,10.2-4.6,10.2-10.2V18.5H129.4z"/>
		</g>
	</g>
	<g>
		<path class="st0" d="M18.6,41.5h-1.7l-2.7-8.4v11h-2.8V26.1h2.8l3.5,10.5l3.5-10.5h2.9v18.1h-2.9v-11L18.6,41.5z"/>
		<path class="st0" d="M32.5,40.1h-3.3l-0.6,4h-2.9l3.4-18.1h3.8l3.4,18.1h-3L32.5,40.1z M32.1,37.6l-1.3-8l-1.3,8H32.1z"/>
		<path class="st0" d="M44.5,44.1l-2.3-7.2h-1.5v7.2h-3V26.1h4.7c2.7,0,4.5,1.1,4.5,3.8v3.2c0,1.7-0.7,2.8-2,3.4l2.6,7.7H44.5z
			 M40.7,34.4h1.6c1,0,1.7-0.4,1.7-1.7v-2.3c0-1.3-0.7-1.7-1.7-1.7h-1.6V34.4z"/>
		<path class="st0" d="M56.2,44.1l-2.5-7.8l-1.3,2.6v5.2h-3V26.1h3v8.1l3.4-8.1h3.1l-3.5,6.8l3.8,11.3H56.2z"/>
		<path class="st0" d="M60.4,44.1V26.1h7.9v2.6h-4.9v5h4.1v2.6h-4.1v5.2h5v2.6H60.4z"/>
		<path class="st0" d="M78.5,28.7h-3v15.4h-3V28.7h-3v-2.6h9V28.7z"/>
		<path class="st0" d="M80.2,44.1V26.1h3v18.1H80.2z"/>
		<path class="st0" d="M85.9,44.1V26.1h3l3.8,11.2V26.1h2.7v18.1h-2.8l-3.9-11.7v11.7H85.9z"/>
		<path class="st0" d="M107.1,40.5c0,2.8-1.8,3.8-4.5,3.8h-0.2c-2.7,0-4.5-1-4.5-3.8V29.7c0-2.7,1.8-3.8,4.5-3.8h0.2
			c2.7,0,4.5,1.1,4.5,3.8v2.6h-3v-2.1c0-1.3-0.7-1.7-1.7-1.7s-1.7,0.4-1.7,1.7v9.9c0,1.3,0.7,1.7,1.7,1.7s1.7-0.4,1.7-1.7v-2.7h-1.8
			v-2.5h4.7V40.5z"/>
	</g>
</g>
</svg>
