<?xml version="1.0" encoding="utf-8"?>
<!-- Generator: Adobe Illustrator 22.1.0, SVG Export Plug-In . SVG Version: 6.00 Build 0)  -->
<svg version="1.0" id="Layer_1" xmlns="http://www.w3.org/2000/svg" xmlns:xlink="http://www.w3.org/1999/xlink" x="0px" y="0px"
	 viewBox="0 0 1024 1024" style="enable-background:new 0 0 1024 1024;" xml:space="preserve">
<style type="text/css">
	.st0{fill:#FFFFFF;}
</style>
<path class="st0" d="M967.5,0h-911C25.3,0,0,25.3,0,56.5v911c0,31.2,25.3,56.5,56.5,56.5H547V628H414V473h133V359
	c0-132.3,80.8-204.3,198.8-204.3c56.5,0,105.1,4.2,119.2,6.1V299l-81.6,0c-64,0-76.4,30.5-76.4,75.2V473h153.5l-20,155H707v396
	h260.5c31.2,0,56.5-25.3,56.5-56.5v-911C1024,25.3,998.7,0,967.5,0z"/>
</svg>
