<?xml version="1.0" encoding="utf-8"?>
<!-- Generator: Adobe Illustrator 22.1.0, SVG Export Plug-In . SVG Version: 6.00 Build 0)  -->
<svg version="1.1" id="Layer_1" xmlns="http://www.w3.org/2000/svg" xmlns:xlink="http://www.w3.org/1999/xlink" x="0px" y="0px"
	 viewBox="0 0 180 60" style="enable-background:new 0 0 180 60;" xml:space="preserve">
<style type="text/css">
	.st0{fill:#9CCB35;}
	.st1{fill:#FFFFFF;}
</style>
<path class="st0" d="M116.3,55V21.9c0-7.1,5.8-12.9,12.9-12.9h41v25.5c0,7.1-5.8,12.9-12.9,12.9h-30.2L116.3,55z M129.2,11.7
	c-5.6,0-10.2,4.6-10.2,10.2v27.8l7.2-5.1h31.1c5.6,0,10.2-4.6,10.2-10.2V11.7H129.2z"/>
<path class="st1" d="M18.4,34.8h-1.7L14,26.4v11h-2.8V19.3H14l3.5,10.5L21,19.3h3v18.1h-2.9v-11L18.4,34.8z"/>
<path class="st1" d="M32.3,33.4H29l-0.6,4h-2.9l3.4-18.1h3.8L36,37.4h-3L32.3,33.4z M31.9,30.9l-1.3-8l-1.3,8H31.9z"/>
<path class="st1" d="M44.3,37.4L42,30.2h-1.5v7.2h-3V19.3h4.7c2.7,0,4.5,1.1,4.5,3.8v3.2c0,1.7-0.7,2.8-2,3.4l2.6,7.7
	C47.3,37.4,44.3,37.4,44.3,37.4z M40.5,27.6h1.6c1,0,1.7-0.4,1.7-1.7v-2.3c0-1.3-0.7-1.7-1.7-1.7h-1.6V27.6z"/>
<path class="st1" d="M55.9,37.4l-2.5-7.8l-1.3,2.6v5.2h-3V19.3h3v8.1l3.4-8.1h3.1l-3.5,6.8L59,37.4H55.9z"/>
<path class="st1" d="M60.2,37.4V19.3h7.9V22h-4.9v5h4.1v2.6h-4.1v5.2h5v2.6C68.2,37.4,60.2,37.4,60.2,37.4z"/>
<path class="st1" d="M78.3,22h-3v15.4h-3V22h-3v-2.6h9V22z"/>
<path class="st1" d="M80,37.4V19.3h3v18.1H80z"/>
<path class="st1" d="M85.6,37.4V19.3h3l3.8,11.2V19.3h2.7v18.1h-2.8l-3.9-11.7v11.7H85.6z"/>
<path class="st1" d="M106.9,33.8c0,2.8-1.8,3.8-4.5,3.8h-0.2c-2.7,0-4.5-1-4.5-3.8V23c0-2.7,1.8-3.8,4.5-3.8h0.2
	c2.7,0,4.5,1.1,4.5,3.8v2.6h-3v-2.1c0-1.3-0.7-1.7-1.7-1.7s-1.7,0.4-1.7,1.7v9.9c0,1.3,0.7,1.7,1.7,1.7s1.7-0.4,1.7-1.7v-2.7h-1.8
	v-2.5h4.7v5.6H106.9z"/>
<path class="st0" d="M131.2,25.7v-2.5c0-1.1-0.6-1.5-1.5-1.5s-1.5,0.4-1.5,1.5v1.2c0,0.9,0.3,1.3,1.1,1.8l2.1,1.2
	c1.7,1,2.7,1.8,2.7,3.7v2.6c0,2.8-1.7,3.7-4.4,3.7h-0.1c-2.7,0-4.4-0.9-4.4-3.7v-3.1h2.9v2.7c0,1.1,0.6,1.6,1.5,1.6s1.5-0.5,1.5-1.6
	v-1.4c0-0.9-0.3-1.4-1.2-1.9l-2.1-1.2c-1.7-1-2.7-1.8-2.7-3.7v-2.4c0-2.7,1.9-3.7,4.4-3.7h0.1c2.5,0,4.4,1,4.4,3.7v2.9h-2.8V25.7z"
	/>
<path class="st0" d="M144,34.6h-1.7l-2.7-8.3v10.9h-2.8V19.3h2.8l3.4,10.4l3.5-10.4h2.9v17.9h-2.9V26.3L144,34.6z"/>
<path class="st0" d="M158.3,25.7v-2.5c0-1.1-0.6-1.5-1.5-1.5s-1.5,0.4-1.5,1.5v1.2c0,0.9,0.3,1.3,1.1,1.8l2.1,1.2
	c1.7,1,2.7,1.8,2.7,3.7v2.6c0,2.8-1.7,3.7-4.4,3.7h-0.1c-2.7,0-4.4-0.9-4.4-3.7v-3.1h2.9v2.7c0,1.1,0.6,1.6,1.5,1.6s1.5-0.5,1.5-1.6
	v-1.4c0-0.9-0.3-1.4-1.2-1.9l-2.1-1.2c-1.7-1-2.7-1.8-2.7-3.7v-2.4c0-2.7,1.9-3.7,4.4-3.7h0.1c2.5,0,4.4,1,4.4,3.7v2.9h-2.8V25.7z"
	/>
</svg>
